CalSansText-Bold.ufo
<glyph name="slash" format="2">
  <advance width="528.0"/>
  <unicode hex="002F"/>
  <outline>
    <contour>
      <point x="50.0" y="-13.0" type="line"/>
      <point x="198.0" y="-13.0" type="line"/>
      <point x="473.0" y="740.0" type="line"/>
      <point x="323.0" y="740.0" type="line"/>
    </contour>
  </outline>
</glyph>
<glyph name="zero" format="2">
  <advance width="674.0"/>
  <unicode hex="0030"/>
  <outline>
    <contour>
      <point x="337.0" y="-13.0" type="curve" smooth="yes"/>
      <point x="498.0" y="-13.0"/>
      <point x="609.0" y="109.0"/>
      <point x="609.0" y="259.0" type="curve" smooth="yes"/>
      <point x="609.0" y="439.0" type="line" smooth="yes"/>
      <point x="609.0" y="589.0"/>
      <point x="498.0" y="711.0"/>
      <point x="337.0" y="711.0" type="curve" smooth="yes"/>
      <point x="176.0" y="711.0"/>
      <point x="65.0" y="589.0"/>
      <point x="65.0" y="439.0" type="curve" smooth="yes"/>
      <point x="65.0" y="259.0" type="line" smooth="yes"/>
      <point x="65.0" y="109.0"/>
      <point x="176.0" y="-13.0"/>
    </contour>
    <contour>
      <point x="337.0" y="117.0" type="curve" smooth="yes"/>
      <point x="251.0" y="117.0"/>
      <point x="210.0" y="184.0"/>
      <point x="210.0" y="275.0" type="curve" smooth="yes"/>
      <point x="210.0" y="422.0" type="line" smooth="yes"/>
      <point x="210.0" y="523.0"/>
      <point x="251.0" y="581.0"/>
      <point x="337.0" y="581.0" type="curve" smooth="yes"/>
      <point x="423.0" y="581.0"/>
      <point x="464.0" y="523.0"/>
      <point x="464.0" y="422.0" type="curve" smooth="yes"/>
      <point x="464.0" y="275.0" type="line" smooth="yes"/>
      <point x="464.0" y="184.0"/>
      <point x="423.0" y="117.0"/>
    </contour>
  </outline>
</glyph>
<glyph name="five" format="2">
  <advance width="602.0"/>
  <unicode hex="0035"/>
  <outline>
    <contour>
      <point x="266.0" y="-13.0" type="curve" smooth="yes"/>
      <point x="417.0" y="-13.0"/>
      <point x="527.0" y="88.0"/>
      <point x="527.0" y="227.0" type="curve" smooth="yes"/>
      <point x="527.0" y="348.0"/>
      <point x="455.0" y="460.0"/>
      <point x="313.0" y="460.0" type="curve" smooth="yes"/>
      <point x="294.0" y="460.0"/>
      <point x="281.0" y="457.0"/>
      <point x="265.0" y="452.0" type="curve"/>
      <point x="263.0" y="454.0" type="line"/>
      <point x="303.0" y="639.0" type="line"/>
      <point x="209.0" y="577.0" type="line"/>
      <point x="481.0" y="577.0" type="line"/>
      <point x="481.0" y="700.0" type="line"/>
      <point x="187.0" y="700.0" type="line"/>
      <point x="97.0" y="298.0" type="line"/>
      <point x="153.0" y="328.0"/>
      <point x="205.0" y="342.0"/>
      <point x="261.0" y="342.0" type="curve" smooth="yes"/>
      <point x="335.0" y="342.0"/>
      <point x="382.0" y="298.0"/>
      <point x="382.0" y="227.0" type="curve" smooth="yes"/>
      <point x="382.0" y="159.0"/>
      <point x="330.0" y="117.0"/>
      <point x="267.0" y="117.0" type="curve" smooth="yes"/>
      <point x="208.0" y="117.0"/>
      <point x="171.0" y="137.0"/>
      <point x="128.0" y="180.0" type="curve"/>
      <point x="41.0" y="83.0" type="line"/>
      <point x="109.0" y="15.0"/>
      <point x="175.0" y="-13.0"/>
    </contour>
  </outline>
</glyph>
<glyph name="D" format="2">
  <advance width="736.0"/>
  <unicode hex="0044"/>
  <anchor x="349.0" y="0.0" name="bottom"/>
  <anchor x="150.0" y="349.0" name="center"/>
  <anchor x="367.0" y="700.0" name="top"/>
  <outline>
    <contour>
      <point x="80.0" y="0.0" type="line"/>
      <point x="315.0" y="0.0" type="line" smooth="yes"/>
      <point x="542.0" y="0.0"/>
      <point x="694.0" y="140.0"/>
      <point x="694.0" y="349.0" type="curve" smooth="yes"/>
      <point x="694.0" y="560.0"/>
      <point x="542.0" y="700.0"/>
      <point x="315.0" y="700.0" type="curve" smooth="yes"/>
      <point x="80.0" y="700.0" type="line"/>
    </contour>
    <contour>
      <point x="220.0" y="135.0" type="line"/>
      <point x="220.0" y="565.0" type="line"/>
      <point x="311.0" y="565.0" type="line" smooth="yes"/>
      <point x="464.0" y="565.0"/>
      <point x="551.0" y="497.0"/>
      <point x="551.0" y="349.0" type="curve" smooth="yes"/>
      <point x="551.0" y="202.0"/>
      <point x="464.0" y="135.0"/>
      <point x="311.0" y="135.0" type="curve" smooth="yes"/>
    </contour>
  </outline>
</glyph>
<glyph name="F" format="2">
  <advance width="556.0"/>
  <unicode hex="0046"/>
  <anchor x="150.0" y="0.0" name="bottom"/>
  <anchor x="118.0" y="0.0" name="ogonek"/>
  <anchor x="304.0" y="700.0" name="top"/>
  <outline>
    <contour>
      <point x="80.0" y="0.0" type="line"/>
      <point x="220.0" y="0.0" type="line"/>
      <point x="220.0" y="281.0" type="line"/>
      <point x="486.0" y="281.0" type="line"/>
      <point x="486.0" y="416.0" type="line"/>
      <point x="220.0" y="416.0" type="line"/>
      <point x="220.0" y="565.0" type="line"/>
      <point x="491.0" y="565.0" type="line"/>
      <point x="491.0" y="700.0" type="line"/>
      <point x="80.0" y="700.0" type="line"/>
    </contour>
  </outline>
</glyph>
<glyph name="U" format="2">
  <advance width="706.0"/>
  <unicode hex="0055"/>
  <anchor x="353.0" y="0.0" name="bottom"/>
  <anchor x="352.0" y="0.0" name="ogonek"/>
  <anchor x="353.0" y="684.0" name="top"/>
  <anchor x="353.0" y="647.0" name="top_ring"/>
  <anchor x="644.0" y="700.0" name="topright"/>
  <outline>
    <contour>
      <point x="353.0" y="-13.0" type="curve" smooth="yes"/>
      <point x="524.0" y="-13.0"/>
      <point x="636.0" y="99.0"/>
      <point x="636.0" y="259.0" type="curve" smooth="yes"/>
      <point x="636.0" y="700.0" type="line"/>
      <point x="496.0" y="700.0" type="line"/>
      <point x="496.0" y="274.0" type="line" smooth="yes"/>
      <point x="496.0" y="175.0"/>
      <point x="449.0" y="117.0"/>
      <point x="353.0" y="117.0" type="curve" smooth="yes"/>
      <point x="257.0" y="117.0"/>
      <point x="210.0" y="175.0"/>
      <point x="210.0" y="274.0" type="curve" smooth="yes"/>
      <point x="210.0" y="700.0" type="line"/>
      <point x="70.0" y="700.0" type="line"/>
      <point x="70.0" y="259.0" type="line" smooth="yes"/>
      <point x="70.0" y="99.0"/>
      <point x="182.0" y="-13.0"/>
    </contour>
  </outline>
</glyph>
<glyph name="V" format="2">
  <advance width="720.0"/>
  <unicode hex="0056"/>
  <anchor x="362.0" y="0.0" name="bottom"/>
  <anchor x="430.0" y="0.0" name="ogonek"/>
  <anchor x="362.0" y="700.0" name="top"/>
  <outline>
    <contour>
      <point x="292.0" y="0.0" type="line"/>
      <point x="430.0" y="0.0" type="line"/>
      <point x="707.0" y="700.0" type="line"/>
      <point x="551.0" y="700.0" type="line"/>
      <point x="391.0" y="255.0" type="line" smooth="yes"/>
      <point x="384.0" y="236.0"/>
      <point x="370.0" y="196.0"/>
      <point x="366.0" y="171.0" type="curve"/>
      <point x="358.0" y="171.0" type="line"/>
      <point x="354.0" y="196.0"/>
      <point x="339.0" y="236.0"/>
      <point x="332.0" y="255.0" type="curve" smooth="yes"/>
      <point x="172.0" y="700.0" type="line"/>
      <point x="13.0" y="700.0" type="line"/>
    </contour>
  </outline>
</glyph>
<glyph name="bracketleft" format="2">
  <advance width="358.0"/>
  <unicode hex="005B"/>
  <outline>
    <contour>
      <point x="85.0" y="-220.0" type="line"/>
      <point x="298.0" y="-220.0" type="line"/>
      <point x="298.0" y="-113.0" type="line"/>
      <point x="213.0" y="-113.0" type="line"/>
      <point x="213.0" y="633.0" type="line"/>
      <point x="298.0" y="633.0" type="line"/>
      <point x="298.0" y="740.0" type="line"/>
      <point x="85.0" y="740.0" type="line"/>
    </contour>
  </outline>
</glyph>
<glyph name="f" format="2">
  <advance width="412.0"/>
  <unicode hex="0066"/>
  <anchor x="180.0" y="0.0" name="bottom"/>
  <anchor x="279.0" y="700.0" name="top"/>
  <outline>
    <contour>
      <point x="113.0" y="0.0" type="line"/>
      <point x="248.0" y="0.0" type="line"/>
      <point x="248.0" y="526.0" type="line" smooth="yes"/>
      <point x="248.0" y="577.0"/>
      <point x="286.0" y="598.0"/>
      <point x="330.0" y="598.0" type="curve" smooth="yes"/>
      <point x="354.0" y="598.0"/>
      <point x="373.0" y="596.0"/>
      <point x="392.0" y="590.0" type="curve"/>
      <point x="392.0" y="705.0" type="line"/>
      <point x="363.0" y="711.0"/>
      <point x="343.0" y="713.0"/>
      <point x="304.0" y="713.0" type="curve" smooth="yes"/>
      <point x="191.0" y="713.0"/>
      <point x="113.0" y="643.0"/>
      <point x="113.0" y="528.0" type="curve" smooth="yes"/>
    </contour>
    <contour>
      <point x="20.0" y="385.0" type="line"/>
      <point x="392.0" y="385.0" type="line"/>
      <point x="392.0" y="505.0" type="line"/>
      <point x="20.0" y="505.0" type="line"/>
    </contour>
  </outline>
</glyph>
<glyph name="g" format="2">
  <advance width="654.0"/>
  <unicode hex="0067"/>
  <anchor x="319.0" y="-220.0" name="bottom"/>
  <anchor x="406.0" y="-220.0" name="ogonek"/>
  <anchor x="309.0" y="505.0" name="top"/>
  <outline>
    <contour>
      <point x="318.0" y="-233.0" type="curve" smooth="yes"/>
      <point x="456.0" y="-233.0"/>
      <point x="584.0" y="-141.0"/>
      <point x="584.0" y="20.0" type="curve" smooth="yes"/>
      <point x="584.0" y="505.0" type="line"/>
      <point x="453.0" y="505.0" type="line"/>
      <point x="453.0" y="429.0" type="line"/>
      <point x="447.0" y="429.0" type="line"/>
      <point x="428.0" y="484.0"/>
      <point x="362.0" y="518.0"/>
      <point x="290.0" y="518.0" type="curve" smooth="yes"/>
      <point x="141.0" y="518.0"/>
      <point x="40.0" y="393.0"/>
      <point x="40.0" y="252.0" type="curve" smooth="yes"/>
      <point x="40.0" y="112.0"/>
      <point x="141.0" y="-13.0"/>
      <point x="290.0" y="-13.0" type="curve" smooth="yes"/>
      <point x="358.0" y="-13.0"/>
      <point x="424.0" y="21.0"/>
      <point x="443.0" y="74.0" type="curve"/>
      <point x="449.0" y="74.0" type="line"/>
      <point x="449.0" y="28.0" type="line" smooth="yes"/>
      <point x="449.0" y="-56.0"/>
      <point x="385.0" y="-108.0"/>
      <point x="313.0" y="-108.0" type="curve" smooth="yes"/>
      <point x="239.0" y="-108.0"/>
      <point x="197.0" y="-78.0"/>
      <point x="168.0" y="-19.0" type="curve"/>
      <point x="56.0" y="-96.0" type="line"/>
      <point x="128.0" y="-211.0"/>
      <point x="209.0" y="-233.0"/>
    </contour>
    <contour>
      <point x="312.0" y="110.0" type="curve" smooth="yes"/>
      <point x="233.0" y="110.0"/>
      <point x="175.0" y="171.0"/>
      <point x="175.0" y="253.0" type="curve" smooth="yes"/>
      <point x="175.0" y="334.0"/>
      <point x="233.0" y="395.0"/>
      <point x="312.0" y="395.0" type="curve" smooth="yes"/>
      <point x="391.0" y="395.0"/>
      <point x="449.0" y="334.0"/>
      <point x="449.0" y="252.0" type="curve" smooth="yes"/>
      <point x="449.0" y="171.0"/>
      <point x="391.0" y="110.0"/>
    </contour>
  </outline>
</glyph>
<glyph name="h" format="2">
  <advance width="605.0"/>
  <unicode hex="0068"/>
  <anchor x="138.0" y="588.0" name="bar"/>
  <anchor x="305.0" y="0.0" name="bottom"/>
  <anchor x="405.0" y="0.0" name="ogonek"/>
  <anchor x="138.0" y="700.0" name="top"/>
  <outline>
    <contour>
      <point x="70.0" y="0.0" type="line"/>
      <point x="205.0" y="0.0" type="line"/>
      <point x="205.0" y="291.0" type="line" smooth="yes"/>
      <point x="205.0" y="358.0"/>
      <point x="243.0" y="400.0"/>
      <point x="303.0" y="400.0" type="curve" smooth="yes"/>
      <point x="366.0" y="400.0"/>
      <point x="405.0" y="358.0"/>
      <point x="405.0" y="291.0" type="curve" smooth="yes"/>
      <point x="405.0" y="0.0" type="line"/>
      <point x="540.0" y="0.0" type="line"/>
      <point x="540.0" y="324.0" type="line" smooth="yes"/>
      <point x="540.0" y="435.0"/>
      <point x="454.0" y="518.0"/>
      <point x="357.0" y="518.0" type="curve" smooth="yes"/>
      <point x="285.0" y="518.0"/>
      <point x="234.0" y="478.0"/>
      <point x="211.0" y="441.0" type="curve"/>
      <point x="205.0" y="441.0" type="line"/>
      <point x="205.0" y="700.0" type="line"/>
      <point x="70.0" y="700.0" type="line"/>
    </contour>
  </outline>
</glyph>
<glyph name="l" format="2">
  <advance width="275.0"/>
  <unicode hex="006C"/>
  <anchor x="138.0" y="0.0" name="bottom"/>
  <anchor x="138.0" y="393.0" name="center"/>
  <anchor x="205.0" y="0.0" name="ogonek"/>
  <anchor x="139.0" y="700.0" name="top"/>
  <anchor x="256.0" y="700.0" name="topright"/>
  <outline>
    <contour>
      <point x="70.0" y="0.0" type="line"/>
      <point x="205.0" y="0.0" type="line"/>
      <point x="206.0" y="700.0" type="line"/>
      <point x="71.0" y="700.0" type="line"/>
      <point x="70.0" y="111.0" type="line"/>
    </contour>
  </outline>
</glyph>
<glyph name="n" format="2">
  <advance width="605.0"/>
  <unicode hex="006E"/>
  <anchor x="303.0" y="0.0" name="bottom"/>
  <anchor x="405.0" y="0.0" name="ogonek"/>
  <anchor x="325.0" y="505.0" name="top"/>
  <outline>
    <contour>
      <point x="70.0" y="0.0" type="line"/>
      <point x="205.0" y="0.0" type="line"/>
      <point x="205.0" y="290.0" type="line" smooth="yes"/>
      <point x="205.0" y="357.0"/>
      <point x="243.0" y="399.0"/>
      <point x="303.0" y="399.0" type="curve" smooth="yes"/>
      <point x="366.0" y="399.0"/>
      <point x="405.0" y="357.0"/>
      <point x="405.0" y="290.0" type="curve" smooth="yes"/>
      <point x="405.0" y="0.0" type="line"/>
      <point x="540.0" y="0.0" type="line"/>
      <point x="540.0" y="323.0" type="line" smooth="yes"/>
      <point x="540.0" y="434.0"/>
      <point x="454.0" y="517.0"/>
      <point x="357.0" y="517.0" type="curve" smooth="yes"/>
      <point x="281.0" y="517.0"/>
      <point x="230.0" y="477.0"/>
      <point x="207.0" y="440.0" type="curve"/>
      <point x="201.0" y="440.0" type="line"/>
      <point x="201.0" y="505.0" type="line"/>
      <point x="70.0" y="505.0" type="line"/>
    </contour>
  </outline>
</glyph>
<glyph name="q" format="2">
  <advance width="644.0"/>
  <unicode hex="0071"/>
  <anchor x="296.0" y="0.0" name="bottom"/>
  <anchor x="362.0" y="0.0" name="ogonek"/>
  <anchor x="296.0" y="505.0" name="top"/>
  <outline>
    <contour>
      <point x="290.0" y="-13.0" type="curve" smooth="yes"/>
      <point x="358.0" y="-13.0"/>
      <point x="424.0" y="21.0"/>
      <point x="443.0" y="74.0" type="curve"/>
      <point x="449.0" y="74.0" type="line"/>
      <point x="449.0" y="-220.0" type="line"/>
      <point x="584.0" y="-220.0" type="line"/>
      <point x="584.0" y="505.0" type="line"/>
      <point x="454.0" y="505.0" type="line"/>
      <point x="454.0" y="429.0" type="line"/>
      <point x="448.0" y="429.0" type="line"/>
      <point x="429.0" y="484.0"/>
      <point x="363.0" y="518.0"/>
      <point x="290.0" y="518.0" type="curve" smooth="yes"/>
      <point x="141.0" y="518.0"/>
      <point x="40.0" y="393.0"/>
      <point x="40.0" y="252.0" type="curve" smooth="yes"/>
      <point x="40.0" y="112.0"/>
      <point x="141.0" y="-13.0"/>
    </contour>
    <contour>
      <point x="312.0" y="110.0" type="curve" smooth="yes"/>
      <point x="233.0" y="110.0"/>
      <point x="175.0" y="171.0"/>
      <point x="175.0" y="253.0" type="curve" smooth="yes"/>
      <point x="175.0" y="334.0"/>
      <point x="233.0" y="395.0"/>
      <point x="312.0" y="395.0" type="curve" smooth="yes"/>
      <point x="391.0" y="395.0"/>
      <point x="449.0" y="334.0"/>
      <point x="449.0" y="252.0" type="curve" smooth="yes"/>
      <point x="449.0" y="171.0"/>
      <point x="391.0" y="110.0"/>
    </contour>
  </outline>
</glyph>
<glyph name="u" format="2">
  <advance width="596.0"/>
  <unicode hex="0075"/>
  <anchor x="296.0" y="0.0" name="bottom"/>
  <anchor x="395.0" y="0.0" name="ogonek"/>
  <anchor x="295.0" y="505.0" name="top"/>
  <anchor x="506.0" y="505.0" name="topright"/>
  <outline>
    <contour>
      <point x="243.0" y="-12.0" type="curve" smooth="yes"/>
      <point x="315.0" y="-12.0"/>
      <point x="366.0" y="28.0"/>
      <point x="389.0" y="65.0" type="curve"/>
      <point x="395.0" y="65.0" type="line"/>
      <point x="395.0" y="0.0" type="line"/>
      <point x="526.0" y="0.0" type="line"/>
      <point x="526.0" y="505.0" type="line"/>
      <point x="391.0" y="505.0" type="line"/>
      <point x="391.0" y="215.0" type="line" smooth="yes"/>
      <point x="391.0" y="148.0"/>
      <point x="353.0" y="106.0"/>
      <point x="297.0" y="106.0" type="curve" smooth="yes"/>
      <point x="239.0" y="106.0"/>
      <point x="200.0" y="148.0"/>
      <point x="200.0" y="215.0" type="curve" smooth="yes"/>
      <point x="200.0" y="505.0" type="line"/>
      <point x="65.0" y="505.0" type="line"/>
      <point x="65.0" y="182.0" type="line" smooth="yes"/>
      <point x="65.0" y="71.0"/>
      <point x="151.0" y="-12.0"/>
    </contour>
  </outline>
</glyph>
<glyph name="micro" format="2">
  <advance width="601.0"/>
  <unicode hex="00B5"/>
  <anchor x="292.0" y="0.0" name="bottom"/>
  <anchor x="400.0" y="0.0" name="ogonek"/>
  <anchor x="302.0" y="505.0" name="top"/>
  <anchor x="531.0" y="505.0" name="topright"/>
  <outline>
    <contour>
      <point x="212.0" y="-3.0" type="line"/>
      <point x="227.0" y="-10.0"/>
      <point x="237.0" y="-12.0"/>
      <point x="253.0" y="-12.0" type="curve" smooth="yes"/>
      <point x="325.0" y="-12.0"/>
      <point x="371.0" y="28.0"/>
      <point x="394.0" y="65.0" type="curve"/>
      <point x="400.0" y="65.0" type="line"/>
      <point x="400.0" y="0.0" type="line"/>
      <point x="531.0" y="0.0" type="line"/>
      <point x="531.0" y="505.0" type="line"/>
      <point x="396.0" y="505.0" type="line"/>
      <point x="396.0" y="215.0" type="line" smooth="yes"/>
      <point x="396.0" y="148.0"/>
      <point x="358.0" y="106.0"/>
      <point x="302.0" y="106.0" type="curve" smooth="yes"/>
      <point x="244.0" y="106.0"/>
      <point x="205.0" y="148.0"/>
      <point x="205.0" y="215.0" type="curve" smooth="yes"/>
      <point x="205.0" y="505.0" type="line"/>
      <point x="70.0" y="505.0" type="line"/>
      <point x="70.0" y="-220.0" type="line"/>
      <point x="206.0" y="-220.0" type="line"/>
      <point x="206.0" y="-3.0" type="line"/>
    </contour>
  </outline>
</glyph>
<glyph name="ordmasculine" format="2">
  <advance width="510.0"/>
  <unicode hex="00BA"/>
  <outline>
    <contour>
      <point x="255.0" y="312.0" type="curve" smooth="yes"/>
      <point x="375.0" y="312.0"/>
      <point x="461.0" y="401.0"/>
      <point x="461.0" y="512.0" type="curve" smooth="yes"/>
      <point x="461.0" y="624.0"/>
      <point x="375.0" y="713.0"/>
      <point x="255.0" y="713.0" type="curve" smooth="yes"/>
      <point x="135.0" y="713.0"/>
      <point x="49.0" y="624.0"/>
      <point x="49.0" y="512.0" type="curve" smooth="yes"/>
      <point x="49.0" y="401.0"/>
      <point x="135.0" y="312.0"/>
    </contour>
    <contour>
      <point x="255.0" y="416.0" type="curve" smooth="yes"/>
      <point x="199.0" y="416.0"/>
      <point x="163.0" y="460.0"/>
      <point x="163.0" y="512.0" type="curve" smooth="yes"/>
      <point x="163.0" y="564.0"/>
      <point x="199.0" y="609.0"/>
      <point x="255.0" y="609.0" type="curve" smooth="yes"/>
      <point x="310.0" y="609.0"/>
      <point x="346.0" y="564.0"/>
      <point x="346.0" y="512.0" type="curve" smooth="yes"/>
      <point x="346.0" y="460.0"/>
      <point x="310.0" y="416.0"/>
    </contour>
    <contour>
      <point x="67.0" y="157.0" type="line"/>
      <point x="443.0" y="157.0" type="line"/>
      <point x="443.0" y="256.0" type="line"/>
      <point x="67.0" y="256.0" type="line"/>
    </contour>
  </outline>
</glyph>
<glyph name="multiply" format="2">
  <advance width="596.0"/>
  <unicode hex="00D7"/>
  <outline>
    <contour>
      <point x="421.0" y="74.0" type="line"/>
      <point x="498.0" y="149.0" type="line"/>
      <point x="161.0" y="486.0" type="line"/>
      <point x="84.0" y="410.0" type="line"/>
    </contour>
    <contour>
      <point x="160.0" y="72.0" type="line"/>
      <point x="496.0" y="410.0" type="line"/>
      <point x="421.0" y="487.0" type="line"/>
      <point x="85.0" y="149.0" type="line"/>
    </contour>
  </outline>
</glyph>
<glyph name="germandbls" format="2">
  <advance width="642.0"/>
  <unicode hex="00DF"/>
  <outline>
    <contour>
      <point x="362.0" y="-13.0" type="curve" smooth="yes"/>
      <point x="512.0" y="-13.0"/>
      <point x="593.0" y="100.0"/>
      <point x="593.0" y="202.0" type="curve" smooth="yes"/>
      <point x="593.0" y="264.0"/>
      <point x="560.0" y="364.0"/>
      <point x="442.0" y="389.0" type="curve"/>
      <point x="442.0" y="393.0" type="line"/>
      <point x="501.0" y="417.0"/>
      <point x="532.0" y="478.0"/>
      <point x="532.0" y="529.0" type="curve" smooth="yes"/>
      <point x="532.0" y="619.0"/>
      <point x="442.0" y="713.0"/>
      <point x="308.0" y="713.0" type="curve" smooth="yes"/>
      <point x="166.0" y="713.0"/>
      <point x="70.0" y="611.0"/>
      <point x="70.0" y="494.0" type="curve" smooth="yes"/>
      <point x="70.0" y="0.0" type="line"/>
      <point x="205.0" y="0.0" type="line"/>
      <point x="205.0" y="494.0" type="line" smooth="yes"/>
      <point x="205.0" y="554.0"/>
      <point x="251.0" y="590.0"/>
      <point x="304.0" y="590.0" type="curve" smooth="yes"/>
      <point x="347.0" y="590.0"/>
      <point x="398.0" y="557.0"/>
      <point x="398.0" y="501.0" type="curve" smooth="yes"/>
      <point x="398.0" y="451.0"/>
      <point x="360.0" y="415.0"/>
      <point x="287.0" y="415.0" type="curve"/>
      <point x="287.0" y="307.0" type="line"/>
      <point x="412.0" y="326.0"/>
      <point x="459.0" y="260.0"/>
      <point x="459.0" y="205.0" type="curve" smooth="yes"/>
      <point x="459.0" y="140.0"/>
      <point x="404.0" y="108.0"/>
      <point x="358.0" y="108.0" type="curve" smooth="yes"/>
      <point x="329.0" y="108.0"/>
      <point x="304.0" y="116.0"/>
      <point x="285.0" y="123.0" type="curve"/>
      <point x="285.0" y="4.0" type="line"/>
      <point x="304.0" y="-8.0"/>
      <point x="341.0" y="-13.0"/>
    </contour>
  </outline>
</glyph>
<glyph name="Hbar" format="2">
  <advance width="730.0"/>
  <unicode hex="0126"/>
  <anchor x="365.0" y="0.0" name="bottom"/>
  <anchor x="510.0" y="0.0" name="ogonek"/>
  <anchor x="365.0" y="700.0" name="top"/>
  <outline>
    <contour>
      <point x="10.0" y="508.0" type="line"/>
      <point x="720.0" y="508.0" type="line"/>
      <point x="720.0" y="628.0" type="line"/>
      <point x="10.0" y="628.0" type="line"/>
    </contour>
    <component base="H"/>
  </outline>
</glyph>
<glyph name="lslash" format="2">
  <advance width="300.0"/>
  <unicode hex="0142"/>
  <anchor x="149.0" y="0.0" name="bottom"/>
  <anchor x="149.0" y="393.0" name="center"/>
  <anchor x="216.0" y="0.0" name="ogonek"/>
  <anchor x="150.0" y="700.0" name="top"/>
  <anchor x="267.0" y="700.0" name="topright"/>
  <outline>
    <contour>
      <point x="4.0" y="243.0" type="line"/>
      <point x="142.0" y="331.0" type="line"/>
      <point x="153.0" y="331.0" type="line"/>
      <point x="295.0" y="421.0" type="line"/>
      <point x="295.0" y="546.0" type="line"/>
      <point x="153.0" y="456.0" type="line"/>
      <point x="142.0" y="456.0" type="line"/>
      <point x="4.0" y="368.0" type="line"/>
    </contour>
    <component base="l" xOffset="11.0"/>
  </outline>
</glyph>
<glyph name="Eng" format="2">
  <advance width="776.0"/>
  <unicode hex="014A"/>
  <anchor x="395.0" y="0.0" name="bottom"/>
  <anchor x="676.0" y="0.0" name="ogonek"/>
  <anchor x="386.0" y="700.0" name="top"/>
  <outline>
    <contour>
      <point x="480.0" y="-229.0" type="curve" smooth="yes"/>
      <point x="620.0" y="-229.0"/>
      <point x="696.0" y="-160.0"/>
      <point x="696.0" y="-16.0" type="curve" smooth="yes"/>
      <point x="696.0" y="0.0" type="line"/>
      <point x="566.0" y="206.0" type="line"/>
      <point x="566.0" y="-25.0" type="line" smooth="yes"/>
      <point x="566.0" y="-71.0"/>
      <point x="534.0" y="-99.0"/>
      <point x="494.0" y="-99.0" type="curve" smooth="yes"/>
      <point x="459.0" y="-99.0"/>
      <point x="433.0" y="-80.0"/>
      <point x="417.0" y="-59.0" type="curve"/>
      <point x="330.0" y="-174.0" type="line"/>
      <point x="367.0" y="-208.0"/>
      <point x="420.0" y="-229.0"/>
    </contour>
    <component base="N"/>
  </outline>
</glyph>
<glyph name="oe" format="2">
  <advance width="985.0"/>
  <unicode hex="0153"/>
  <anchor x="504.0" y="0.0" name="bottom"/>
  <anchor x="504.0" y="505.0" name="top"/>
  <outline>
    <contour>
      <point x="307.0" y="-13.0" type="curve" smooth="yes"/>
      <point x="460.0" y="-13.0"/>
      <point x="560.0" y="101.0"/>
      <point x="560.0" y="252.0" type="curve" smooth="yes"/>
      <point x="560.0" y="404.0"/>
      <point x="460.0" y="518.0"/>
      <point x="307.0" y="518.0" type="curve" smooth="yes"/>
      <point x="154.0" y="518.0"/>
      <point x="40.0" y="404.0"/>
      <point x="40.0" y="252.0" type="curve" smooth="yes"/>
      <point x="40.0" y="101.0"/>
      <point x="154.0" y="-13.0"/>
    </contour>
    <contour>
      <point x="307.0" y="110.0" type="curve" smooth="yes"/>
      <point x="231.0" y="110.0"/>
      <point x="175.0" y="165.0"/>
      <point x="175.0" y="252.0" type="curve" smooth="yes"/>
      <point x="175.0" y="340.0"/>
      <point x="231.0" y="395.0"/>
      <point x="307.0" y="395.0" type="curve" smooth="yes"/>
      <point x="383.0" y="395.0"/>
      <point x="439.0" y="340.0"/>
      <point x="439.0" y="252.0" type="curve" smooth="yes"/>
      <point x="439.0" y="165.0"/>
      <point x="383.0" y="110.0"/>
    </contour>
    <contour>
      <point x="706.0" y="-13.0" type="curve" smooth="yes"/>
      <point x="800.0" y="-13.0"/>
      <point x="879.0" y="26.0"/>
      <point x="922.0" y="75.0" type="curve"/>
      <point x="833.0" y="165.0" type="line"/>
      <point x="807.0" y="129.0"/>
      <point x="759.0" y="107.0"/>
      <point x="709.0" y="107.0" type="curve" smooth="yes"/>
      <point x="622.0" y="107.0"/>
      <point x="580.0" y="174.0"/>
      <point x="574.0" y="239.0" type="curve"/>
      <point x="573.0" y="260.0" type="line"/>
      <point x="573.0" y="357.0"/>
      <point x="622.0" y="409.0"/>
      <point x="697.0" y="409.0" type="curve" smooth="yes"/>
      <point x="777.0" y="409.0"/>
      <point x="812.0" y="357.0"/>
      <point x="809.0" y="265.0" type="curve"/>
      <point x="849.0" y="316.0" type="line"/>
      <point x="519.0" y="316.0" type="line"/>
      <point x="519.0" y="216.0" type="line"/>
      <point x="941.0" y="216.0" type="line"/>
      <point x="944.0" y="225.0"/>
      <point x="945.0" y="245.0"/>
      <point x="945.0" y="262.0" type="curve" smooth="yes"/>
      <point x="945.0" y="416.0"/>
      <point x="847.0" y="518.0"/>
      <point x="699.0" y="518.0" type="curve" smooth="yes"/>
      <point x="551.0" y="518.0"/>
      <point x="452.0" y="419.0"/>
      <point x="452.0" y="249.0" type="curve" smooth="yes"/>
      <point x="452.0" y="99.0"/>
      <point x="544.0" y="-13.0"/>
    </contour>
    <contour>
      <point x="475.0" y="431.0" type="line"/>
      <point x="475.0" y="75.0" type="line"/>
      <point x="529.0" y="75.0" type="line"/>
      <point x="529.0" y="431.0" type="line"/>
    </contour>
  </outline>
</glyph>
<glyph name="Fhook" format="2">
  <advance width="556.0"/>
  <unicode hex="0191"/>
  <anchor x="150.0" y="0.0" name="bottom"/>
  <anchor x="118.0" y="0.0" name="ogonek"/>
  <anchor x="304.0" y="700.0" name="top"/>
  <outline>
    <contour>
      <point x="-6.0" y="-229.0" type="curve" smooth="yes"/>
      <point x="134.0" y="-229.0"/>
      <point x="220.0" y="-160.0"/>
      <point x="220.0" y="-16.0" type="curve" smooth="yes"/>
      <point x="220.0" y="0.0" type="line"/>
      <point x="150.0" y="186.0" type="line"/>
      <point x="80.0" y="0.0" type="line"/>
      <point x="80.0" y="-25.0" type="line" smooth="yes"/>
      <point x="80.0" y="-71.0"/>
      <point x="48.0" y="-99.0"/>
      <point x="8.0" y="-99.0" type="curve" smooth="yes"/>
      <point x="-27.0" y="-99.0"/>
      <point x="-53.0" y="-80.0"/>
      <point x="-69.0" y="-59.0" type="curve"/>
      <point x="-156.0" y="-174.0" type="line"/>
      <point x="-119.0" y="-208.0"/>
      <point x="-66.0" y="-229.0"/>
    </contour>
    <component base="F"/>
  </outline>
</glyph>
<glyph name="hungarumlautcomb" format="2">
  <unicode hex="030B"/>
  <anchor x="0.0" y="505.0" name="_top"/>
  <anchor x="1.0" y="690.0" name="top"/>
  <outline>
    <contour>
      <point x="51.0" y="556.0" type="line"/>
      <point x="114.0" y="556.0" type="line"/>
      <point x="221.0" y="715.0" type="line"/>
      <point x="78.0" y="715.0" type="line"/>
    </contour>
    <contour>
      <point x="-114.0" y="556.0" type="line"/>
      <point x="-51.0" y="556.0" type="line"/>
      <point x="56.0" y="715.0" type="line"/>
      <point x="-87.0" y="715.0" type="line"/>
    </contour>
  </outline>
</glyph>
<glyph name="brevebelowcomb" format="2">
  <unicode hex="032E"/>
  <anchor x="0.0" y="0.0" name="_bottom"/>
  <outline>
    <contour>
      <point x="0.0" y="-220.0" type="curve" smooth="yes"/>
      <point x="99.0" y="-220.0"/>
      <point x="160.0" y="-159.0"/>
      <point x="160.0" y="-68.0" type="curve"/>
      <point x="60.0" y="-68.0" type="line"/>
      <point x="61.0" y="-116.0"/>
      <point x="38.0" y="-146.0"/>
      <point x="0.0" y="-146.0" type="curve" smooth="yes"/>
      <point x="-38.0" y="-146.0"/>
      <point x="-61.0" y="-116.0"/>
      <point x="-60.0" y="-68.0" type="curve"/>
      <point x="-160.0" y="-68.0" type="line"/>
      <point x="-160.0" y="-159.0"/>
      <point x="-98.0" y="-220.0"/>
    </contour>
  </outline>
</glyph>
<glyph name="pi" format="2">
  <advance width="609.0"/>
  <unicode hex="03C0"/>
  <outline>
    <contour>
      <point x="557.0" y="-7.0" type="curve" smooth="yes"/>
      <point x="568.0" y="-7.0"/>
      <point x="582.0" y="-6.0"/>
      <point x="589.0" y="-5.0" type="curve"/>
      <point x="589.0" y="121.0" type="line"/>
      <point x="580.0" y="120.0"/>
      <point x="570.0" y="119.0"/>
      <point x="561.0" y="119.0" type="curve" smooth="yes"/>
      <point x="516.0" y="119.0"/>
      <point x="496.0" y="137.0"/>
      <point x="496.0" y="179.0" type="curve" smooth="yes"/>
      <point x="496.0" y="385.0" type="line"/>
      <point x="589.0" y="385.0" type="line"/>
      <point x="589.0" y="505.0" type="line"/>
      <point x="20.0" y="505.0" type="line"/>
      <point x="20.0" y="385.0" type="line"/>
      <point x="113.0" y="385.0" type="line"/>
      <point x="113.0" y="0.0" type="line"/>
      <point x="248.0" y="0.0" type="line"/>
      <point x="248.0" y="385.0" type="line"/>
      <point x="361.0" y="385.0" type="line"/>
      <point x="361.0" y="169.0" type="line" smooth="yes"/>
      <point x="361.0" y="23.0"/>
      <point x="458.0" y="-7.0"/>
    </contour>
  </outline>
</glyph>
<glyph name="dagger" format="2">
  <advance width="460.0"/>
  <unicode hex="2020"/>
  <outline>
    <contour>
      <point x="175.0" y="301.0" type="line"/>
      <point x="285.0" y="301.0" type="line"/>
      <point x="285.0" y="753.0" type="line"/>
      <point x="175.0" y="753.0" type="line"/>
    </contour>
    <contour>
      <point x="80.0" y="562.0" type="line"/>
      <point x="380.0" y="562.0" type="line"/>
      <point x="380.0" y="667.0" type="line"/>
      <point x="80.0" y="667.0" type="line"/>
    </contour>
  </outline>
</glyph>
<glyph name="daggerdbl" format="2">
  <advance width="460.0"/>
  <unicode hex="2021"/>
  <outline>
    <contour>
      <point x="175.0" y="301.0" type="line"/>
      <point x="285.0" y="301.0" type="line"/>
      <point x="285.0" y="753.0" type="line"/>
      <point x="175.0" y="753.0" type="line"/>
    </contour>
    <contour>
      <point x="80.0" y="386.0" type="line"/>
      <point x="380.0" y="386.0" type="line"/>
      <point x="380.0" y="491.0" type="line"/>
      <point x="80.0" y="491.0" type="line"/>
    </contour>
    <contour>
      <point x="80.0" y="563.0" type="line"/>
      <point x="380.0" y="563.0" type="line"/>
      <point x="380.0" y="668.0" type="line"/>
      <point x="80.0" y="668.0" type="line"/>
    </contour>
  </outline>
</glyph>
<glyph name="guilsinglleft" format="2">
  <advance width="379.0"/>
  <unicode hex="2039"/>
  <outline>
    <contour>
      <point x="188.0" y="48.0" type="line"/>
      <point x="329.0" y="48.0" type="line"/>
      <point x="197.0" y="267.0" type="line"/>
      <point x="197.0" y="271.0" type="line"/>
      <point x="329.0" y="477.0" type="line"/>
      <point x="186.0" y="477.0" type="line"/>
      <point x="60.0" y="263.0" type="line"/>
    </contour>
  </outline>
</glyph>
<glyph name="colonsign" format="2">
  <advance width="643.0"/>
  <unicode hex="20A1"/>
  <outline>
    <contour>
      <point x="377.0" y="27.0" type="curve" smooth="yes"/>
      <point x="494.0" y="27.0"/>
      <point x="563.0" y="64.0"/>
      <point x="621.0" y="134.0" type="curve"/>
      <point x="521.0" y="220.0" type="line"/>
      <point x="479.0" y="166.0"/>
      <point x="438.0" y="153.0"/>
      <point x="380.0" y="153.0" type="curve" smooth="yes"/>
      <point x="266.0" y="153.0"/>
      <point x="173.0" y="217.0"/>
      <point x="173.0" y="351.0" type="curve" smooth="yes"/>
      <point x="173.0" y="484.0"/>
      <point x="265.0" y="547.0"/>
      <point x="377.0" y="547.0" type="curve" smooth="yes"/>
      <point x="430.0" y="547.0"/>
      <point x="473.0" y="535.0"/>
      <point x="521.0" y="480.0" type="curve"/>
      <point x="621.0" y="574.0" type="line"/>
      <point x="544.0" y="648.0"/>
      <point x="481.0" y="673.0"/>
      <point x="377.0" y="673.0" type="curve" smooth="yes"/>
      <point x="171.0" y="673.0"/>
      <point x="42.0" y="530.0"/>
      <point x="42.0" y="349.0" type="curve" smooth="yes"/>
      <point x="42.0" y="169.0"/>
      <point x="179.0" y="27.0"/>
    </contour>
    <contour>
      <point x="430.0" y="-69.0" type="line"/>
      <point x="518.0" y="775.0" type="line"/>
      <point x="433.0" y="775.0" type="line"/>
      <point x="345.0" y="-69.0" type="line"/>
    </contour>
    <contour>
      <point x="281.0" y="-69.0" type="line"/>
      <point x="369.0" y="775.0" type="line"/>
      <point x="284.0" y="775.0" type="line"/>
      <point x="196.0" y="-69.0" type="line"/>
    </contour>
  </outline>
</glyph>
<glyph name="tenge" format="2">
  <advance width="630.0"/>
  <unicode hex="20B8"/>
  <outline>
    <contour>
      <point x="245.0" y="30.0" type="line"/>
      <point x="385.0" y="30.0" type="line"/>
      <point x="385.0" y="464.0" type="line"/>
      <point x="245.0" y="464.0" type="line"/>
    </contour>
    <contour>
      <point x="45.0" y="394.0" type="line"/>
      <point x="585.0" y="394.0" type="line"/>
      <point x="585.0" y="529.0" type="line"/>
      <point x="45.0" y="529.0" type="line"/>
    </contour>
    <contour>
      <point x="45.0" y="585.0" type="line"/>
      <point x="585.0" y="585.0" type="line"/>
      <point x="584.0" y="670.0" type="line"/>
      <point x="45.0" y="670.0" type="line"/>
    </contour>
  </outline>
</glyph>
<glyph name="riyalSaudi" format="2">
  <advance width="600.0"/>
  <unicode hex="20C1"/>
  <outline>
    <contour>
      <point x="18.0" y="82.0" type="line"/>
      <point x="130.0" y="112.0" type="line" smooth="yes"/>
      <point x="219.0" y="136.0"/>
      <point x="271.0" y="221.0"/>
      <point x="271.0" y="313.0" type="curve" smooth="yes"/>
      <point x="271.0" y="757.0" type="line"/>
      <point x="181.0" y="712.0" type="line"/>
      <point x="181.0" y="237.0" type="line"/>
      <point x="37.0" y="202.0" type="line"/>
    </contour>
    <contour>
      <point x="339.0" y="25.0" type="line"/>
      <point x="564.0" y="72.0" type="line"/>
      <point x="583.0" y="192.0" type="line"/>
      <point x="358.0" y="146.0" type="line"/>
    </contour>
    <contour>
      <point x="18.0" y="292.0" type="line"/>
      <point x="564.0" y="414.0" type="line"/>
      <point x="583.0" y="534.0" type="line"/>
      <point x="37.0" y="412.0" type="line"/>
    </contour>
    <contour>
      <point x="329.0" y="196.0" type="line"/>
      <point x="564.0" y="243.0" type="line"/>
      <point x="583.0" y="363.0" type="line"/>
      <point x="362.0" y="316.0" type="line"/>
    </contour>
    <contour>
      <point x="329.0" y="196.0" type="line"/>
      <point x="419.0" y="222.0" type="line"/>
      <point x="419.0" y="713.0" type="line"/>
      <point x="329.0" y="670.0" type="line"/>
    </contour>
  </outline>
</glyph>
<glyph name="trademark" format="2">
  <advance width="867.0"/>
  <unicode hex="2122"/>
  <outline>
    <contour>
      <point x="368.0" y="315.0" type="line"/>
      <point x="457.0" y="315.0" type="line"/>
      <point x="457.0" y="451.0" type="line" smooth="yes"/>
      <point x="457.0" y="516.0"/>
      <point x="457.0" y="541.0"/>
      <point x="450.0" y="590.0" type="curve"/>
      <point x="428.0" y="610.0" type="line"/>
      <point x="565.0" y="315.0" type="line"/>
      <point x="624.0" y="315.0" type="line"/>
      <point x="761.0" y="610.0" type="line"/>
      <point x="741.0" y="590.0" type="line"/>
      <point x="735.0" y="541.0"/>
      <point x="733.0" y="516.0"/>
      <point x="733.0" y="451.0" type="curve" smooth="yes"/>
      <point x="733.0" y="315.0" type="line"/>
      <point x="822.0" y="315.0" type="line"/>
      <point x="822.0" y="700.0" type="line"/>
      <point x="712.0" y="700.0" type="line"/>
      <point x="635.0" y="539.0" type="line" smooth="yes"/>
      <point x="595.0" y="455.0"/>
      <point x="595.0" y="436.0"/>
      <point x="589.0" y="409.0" type="curve"/>
      <point x="603.0" y="409.0" type="line"/>
      <point x="598.0" y="436.0"/>
      <point x="596.0" y="454.0"/>
      <point x="557.0" y="539.0" type="curve" smooth="yes"/>
      <point x="481.0" y="700.0" type="line"/>
      <point x="368.0" y="700.0" type="line"/>
    </contour>
    <contour>
      <point x="127.0" y="315.0" type="line"/>
      <point x="219.0" y="315.0" type="line"/>
      <point x="219.0" y="655.0" type="line"/>
      <point x="182.0" y="616.0" type="line"/>
      <point x="321.0" y="616.0" type="line"/>
      <point x="321.0" y="700.0" type="line"/>
      <point x="25.0" y="700.0" type="line"/>
      <point x="25.0" y="616.0" type="line"/>
      <point x="164.0" y="616.0" type="line"/>
      <point x="127.0" y="655.0" type="line"/>
    </contour>
  </outline>
</glyph>
<glyph name="increment" format="2">
  <advance width="736.0"/>
  <unicode hex="2206"/>
  <outline>
    <contour>
      <point x="11.0" y="0.0" type="line"/>
      <point x="725.0" y="0.0" type="line"/>
      <point x="421.0" y="700.0" type="line"/>
      <point x="311.0" y="700.0" type="line"/>
    </contour>
    <contour>
      <point x="175.0" y="80.0" type="line"/>
      <point x="357.0" y="554.0" type="line" smooth="yes"/>
      <point x="359.0" y="558.0"/>
      <point x="361.0" y="563.0"/>
      <point x="362.0" y="568.0" type="curve"/>
      <point x="365.0" y="568.0" type="line"/>
      <point x="366.0" y="563.0"/>
      <point x="368.0" y="558.0"/>
      <point x="370.0" y="554.0" type="curve" smooth="yes"/>
      <point x="555.0" y="80.0" type="line"/>
      <point x="575.0" y="103.0" type="line"/>
      <point x="155.0" y="103.0" type="line"/>
    </contour>
  </outline>
</glyph>
<glyph name="product" format="2">
  <advance width="658.0"/>
  <unicode hex="220F"/>
  <outline>
    <contour>
      <point x="415.0" y="-220.0" type="line"/>
      <point x="543.0" y="-220.0" type="line"/>
      <point x="543.0" y="700.0" type="line"/>
      <point x="415.0" y="700.0" type="line"/>
    </contour>
    <contour>
      <point x="115.0" y="-220.0" type="line"/>
      <point x="243.0" y="-220.0" type="line"/>
      <point x="243.0" y="700.0" type="line"/>
      <point x="115.0" y="700.0" type="line"/>
    </contour>
    <contour>
      <point x="40.0" y="590.0" type="line"/>
      <point x="618.0" y="590.0" type="line"/>
      <point x="618.0" y="700.0" type="line"/>
      <point x="40.0" y="700.0" type="line"/>
    </contour>
  </outline>
</glyph>
<glyph name="summation" format="2">
  <advance width="570.0"/>
  <unicode hex="2211"/>
  <outline>
    <contour>
      <point x="241.0" y="-75.0" type="curve" smooth="yes"/>
      <point x="419.0" y="253.0" type="line"/>
      <point x="250.0" y="555.0" type="line" smooth="yes"/>
      <point x="240.0" y="574.0"/>
      <point x="232.0" y="584.0"/>
      <point x="227.0" y="587.0" type="curve"/>
      <point x="229.0" y="591.0" type="line"/>
      <point x="234.0" y="589.0"/>
      <point x="248.0" y="590.0"/>
      <point x="272.0" y="590.0" type="curve" smooth="yes"/>
      <point x="538.0" y="590.0" type="line"/>
      <point x="538.0" y="700.0" type="line"/>
      <point x="20.0" y="700.0" type="line"/>
      <point x="20.0" y="685.0" type="line"/>
      <point x="290.0" y="232.0" type="line"/>
      <point x="290.0" y="258.0" type="line"/>
      <point x="20.0" y="-205.0" type="line"/>
      <point x="20.0" y="-220.0" type="line"/>
      <point x="538.0" y="-220.0" type="line"/>
      <point x="538.0" y="-110.0" type="line"/>
      <point x="263.0" y="-110.0" type="line" smooth="yes"/>
      <point x="249.0" y="-110.0"/>
      <point x="229.0" y="-108.0"/>
      <point x="221.0" y="-111.0" type="curve"/>
      <point x="218.0" y="-107.0" type="line"/>
      <point x="228.0" y="-100.0"/>
      <point x="236.0" y="-85.0"/>
    </contour>
  </outline>
</glyph>
<glyph name="infinity" format="2">
  <advance width="787.0"/>
  <unicode hex="221E"/>
  <outline>
    <contour>
      <point x="209.0" y="92.0" type="curve" smooth="yes"/>
      <point x="315.0" y="92.0"/>
      <point x="378.0" y="153.0"/>
      <point x="442.0" y="262.0" type="curve"/>
      <point x="349.0" y="262.0" type="line"/>
      <point x="407.0" y="153.0"/>
      <point x="471.0" y="92.0"/>
      <point x="578.0" y="92.0" type="curve" smooth="yes"/>
      <point x="696.0" y="92.0"/>
      <point x="777.0" y="181.0"/>
      <point x="777.0" y="287.0" type="curve" smooth="yes"/>
      <point x="777.0" y="392.0"/>
      <point x="696.0" y="482.0"/>
      <point x="578.0" y="482.0" type="curve" smooth="yes"/>
      <point x="471.0" y="482.0"/>
      <point x="407.0" y="420.0"/>
      <point x="345.0" y="312.0" type="curve"/>
      <point x="438.0" y="312.0" type="line"/>
      <point x="378.0" y="420.0"/>
      <point x="315.0" y="482.0"/>
      <point x="209.0" y="482.0" type="curve" smooth="yes"/>
      <point x="91.0" y="482.0"/>
      <point x="10.0" y="392.0"/>
      <point x="10.0" y="287.0" type="curve" smooth="yes"/>
      <point x="10.0" y="181.0"/>
      <point x="91.0" y="92.0"/>
    </contour>
    <contour>
      <point x="211.0" y="200.0" type="curve" smooth="yes"/>
      <point x="163.0" y="200.0"/>
      <point x="122.0" y="239.0"/>
      <point x="122.0" y="287.0" type="curve" smooth="yes"/>
      <point x="122.0" y="335.0"/>
      <point x="163.0" y="374.0"/>
      <point x="211.0" y="374.0" type="curve" smooth="yes"/>
      <point x="288.0" y="374.0"/>
      <point x="312.0" y="319.0"/>
      <point x="361.0" y="249.0" type="curve"/>
      <point x="361.0" y="325.0" type="line"/>
      <point x="312.0" y="255.0"/>
      <point x="288.0" y="200.0"/>
    </contour>
    <contour>
      <point x="575.0" y="200.0" type="curve" smooth="yes"/>
      <point x="498.0" y="200.0"/>
      <point x="474.0" y="255.0"/>
      <point x="425.0" y="325.0" type="curve"/>
      <point x="425.0" y="249.0" type="line"/>
      <point x="474.0" y="319.0"/>
      <point x="498.0" y="374.0"/>
      <point x="575.0" y="374.0" type="curve" smooth="yes"/>
      <point x="623.0" y="374.0"/>
      <point x="665.0" y="335.0"/>
      <point x="665.0" y="287.0" type="curve" smooth="yes"/>
      <point x="665.0" y="239.0"/>
      <point x="623.0" y="200.0"/>
    </contour>
  </outline>
</glyph>
<glyph name="integral" format="2">
  <advance width="428.0"/>
  <unicode hex="222B"/>
  <outline>
    <contour>
      <point x="-120.0" y="-225.0" type="line"/>
      <point x="-95.0" y="-230.0"/>
      <point x="-61.0" y="-233.0"/>
      <point x="-32.0" y="-233.0" type="curve" smooth="yes"/>
      <point x="62.0" y="-233.0"/>
      <point x="141.0" y="-193.0"/>
      <point x="172.0" y="-54.0" type="curve" smooth="yes"/>
      <point x="298.0" y="511.0" type="line" smooth="yes"/>
      <point x="312.0" y="574.0"/>
      <point x="342.0" y="597.0"/>
      <point x="396.0" y="597.0" type="curve" smooth="yes"/>
      <point x="410.0" y="597.0"/>
      <point x="424.0" y="595.0"/>
      <point x="436.0" y="590.0" type="curve"/>
      <point x="458.0" y="703.0" type="line"/>
      <point x="434.0" y="710.0"/>
      <point x="414.0" y="714.0"/>
      <point x="385.0" y="714.0" type="curve" smooth="yes"/>
      <point x="284.0" y="714.0"/>
      <point x="205.0" y="667.0"/>
      <point x="174.0" y="528.0" type="curve" smooth="yes"/>
      <point x="48.0" y="-37.0" type="line" smooth="yes"/>
      <point x="34.0" y="-100.0"/>
      <point x="3.0" y="-117.0"/>
      <point x="-43.0" y="-117.0" type="curve" smooth="yes"/>
      <point x="-67.0" y="-117.0"/>
      <point x="-85.0" y="-115.0"/>
      <point x="-100.0" y="-111.0" type="curve"/>
    </contour>
  </outline>
</glyph>
<glyph name="notequal" format="2">
  <advance width="596.0"/>
  <unicode hex="2260"/>
  <outline>
    <contour>
      <point x="171.0" y="216.0" type="line"/>
      <point x="277.0" y="216.0" type="line"/>
      <point x="428.0" y="443.0" type="line"/>
      <point x="322.0" y="443.0" type="line"/>
    </contour>
    <contour>
      <point x="82.0" y="70.0" type="line"/>
      <point x="195.0" y="70.0" type="line"/>
      <point x="285.0" y="216.0" type="line"/>
      <point x="173.0" y="216.0" type="line"/>
    </contour>
    <contour>
      <point x="314.0" y="443.0" type="line"/>
      <point x="426.0" y="443.0" type="line"/>
      <point x="499.0" y="561.0" type="line"/>
      <point x="387.0" y="561.0" type="line"/>
    </contour>
    <component base="equal"/>
  </outline>
</glyph>
<glyph name="greaterequal" format="2">
  <advance width="596.0"/>
  <unicode hex="2265"/>
  <outline>
    <contour>
      <point x="65.0" y="220.0" type="line"/>
      <point x="544.0" y="430.0" type="line"/>
      <point x="65.0" y="640.0" type="line"/>
      <point x="65.0" y="524.0" type="line"/>
      <point x="297.0" y="431.0" type="line"/>
      <point x="297.0" y="429.0" type="line"/>
      <point x="66.0" y="336.0" type="line"/>
    </contour>
    <contour>
      <point x="65.0" y="81.0" type="line"/>
      <point x="517.0" y="81.0" type="line"/>
      <point x="517.0" y="191.0" type="line"/>
      <point x="65.0" y="191.0" type="line"/>
    </contour>
  </outline>
</glyph>
<glyph name="blackSquare" format="2">
  <advance width="890.0"/>
  <unicode hex="25A0"/>
  <outline>
    <contour>
      <point x="90.0" y="0.0" type="line"/>
      <point x="800.0" y="0.0" type="line"/>
      <point x="800.0" y="700.0" type="line"/>
      <point x="90.0" y="700.0" type="line"/>
    </contour>
  </outline>
</glyph>
<glyph name="blackSmallSquare" format="2">
  <advance width="397.0"/>
  <unicode hex="25AA"/>
  <outline>
    <contour>
      <point x="90.0" y="257.0" type="line"/>
      <point x="307.0" y="257.0" type="line"/>
      <point x="307.0" y="469.0" type="line"/>
      <point x="90.0" y="469.0" type="line"/>
    </contour>
  </outline>
</glyph>
<glyph name="whiteStar" format="2">
  <advance width="809.0"/>
  <unicode hex="2606"/>
  <outline>
    <contour>
      <point x="157.0" y="-13.0" type="line"/>
      <point x="404.0" y="167.0" type="line"/>
      <point x="651.0" y="-13.0" type="line"/>
      <point x="557.0" y="277.0" type="line"/>
      <point x="804.0" y="457.0" type="line"/>
      <point x="499.0" y="457.0" type="line"/>
      <point x="404.0" y="747.0" type="line"/>
      <point x="310.0" y="457.0" type="line"/>
      <point x="5.0" y="457.0" type="line"/>
      <point x="252.0" y="277.0" type="line"/>
    </contour>
    <contour>
      <point x="271.0" y="140.0" type="line"/>
      <point x="335.0" y="303.0" type="line"/>
      <point x="183.0" y="397.0" type="line"/>
      <point x="363.0" y="388.0" type="line"/>
      <point x="404.0" y="549.0" type="line"/>
      <point x="447.0" y="388.0" type="line"/>
      <point x="626.0" y="397.0" type="line"/>
      <point x="474.0" y="303.0" type="line"/>
      <point x="538.0" y="140.0" type="line"/>
      <point x="404.0" y="253.0" type="line"/>
    </contour>
  </outline>
</glyph>
<glyph name="heartBlackSuit" format="2">
  <advance width="832.0"/>
  <unicode hex="2665"/>
  <outline>
    <contour>
      <point x="416.0" y="-13.0" type="curve"/>
      <point x="416.0" y="-13.0"/>
      <point x="827.0" y="206.0"/>
      <point x="827.0" y="508.0" type="curve" smooth="yes"/>
      <point x="827.0" y="622.0"/>
      <point x="735.0" y="713.0"/>
      <point x="622.0" y="713.0" type="curve" smooth="yes"/>
      <point x="524.0" y="713.0"/>
      <point x="431.0" y="630.0"/>
      <point x="419.0" y="531.0" type="curve"/>
      <point x="413.0" y="531.0" type="line"/>
      <point x="405.0" y="630.0"/>
      <point x="313.0" y="713.0"/>
      <point x="210.0" y="713.0" type="curve" smooth="yes"/>
      <point x="96.0" y="713.0"/>
      <point x="5.0" y="622.0"/>
      <point x="5.0" y="508.0" type="curve" smooth="yes"/>
      <point x="5.0" y="206.0"/>
      <point x="416.0" y="-13.0"/>
    </contour>
  </outline>
</glyph>
<glyph name="checkmark" format="2">
  <advance width="600.0"/>
  <unicode hex="2713"/>
  <outline>
    <contour>
      <point x="234.0" y="146.0" type="line"/>
      <point x="297.0" y="235.0" type="line"/>
      <point x="153.0" y="389.0" type="line"/>
      <point x="76.0" y="315.0" type="line"/>
    </contour>
    <contour>
      <point x="234.0" y="146.0" type="line"/>
      <point x="558.0" y="495.0" type="line"/>
      <point x="481.0" y="569.0" type="line"/>
      <point x="172.0" y="236.0" type="line"/>
    </contour>
  </outline>
</glyph>
<glyph name="fl" format="2">
  <advance width="635.0"/>
  <unicode hex="FB02"/>
  <anchor x="180.0" y="0.0" name="bottom_1"/>
  <anchor x="279.0" y="700.0" name="top_1"/>
  <anchor x="498.0" y="0.0" name="bottom_2"/>
  <anchor x="498.0" y="393.0" name="center_2"/>
  <anchor x="565.0" y="0.0" name="ogonek_2"/>
  <anchor x="499.0" y="700.0" name="top_2"/>
  <anchor x="616.0" y="700.0" name="topright_2"/>
  <anchor x="392.0" y="0.0" name="caret_1"/>
  <outline>
    <contour>
      <point x="21.0" y="385.0" type="line"/>
      <point x="555.0" y="385.0" type="line"/>
      <point x="565.0" y="505.0" type="line"/>
      <point x="21.0" y="505.0" type="line"/>
    </contour>
    <component base="f"/>
    <component base="l" xOffset="360.0"/>
  </outline>
</glyph>
<glyph name="acutecomb.case" format="2">
  <anchor x="0.0" y="700.0" name="_top"/>
  <anchor x="0.0" y="820.0" name="top"/>
  <outline>
    <contour>
      <point x="-37.0" y="740.0" type="line"/>
      <point x="36.0" y="740.0" type="line"/>
      <point x="153.0" y="857.0" type="line"/>
      <point x="12.0" y="857.0" type="line"/>
    </contour>
  </outline>
</glyph>
<glyph name="brevecomb.case" format="2">
  <anchor x="0.0" y="700.0" name="_top"/>
  <anchor x="0.0" y="807.0" name="top"/>
  <outline>
    <contour>
      <point x="0.0" y="732.0" type="curve" smooth="yes"/>
      <point x="89.0" y="732.0"/>
      <point x="150.0" y="785.0"/>
      <point x="150.0" y="849.0" type="curve"/>
      <point x="56.0" y="849.0" type="line"/>
      <point x="57.0" y="822.0"/>
      <point x="28.0" y="801.0"/>
      <point x="0.0" y="801.0" type="curve" smooth="yes"/>
      <point x="-28.0" y="801.0"/>
      <point x="-57.0" y="822.0"/>
      <point x="-56.0" y="849.0" type="curve"/>
      <point x="-150.0" y="849.0" type="line"/>
      <point x="-150.0" y="785.0"/>
      <point x="-88.0" y="732.0"/>
    </contour>
  </outline>
</glyph>
<glyph name="cedi.tf" format="2">
  <advance width="596.0"/>
  <outline>
    <contour>
      <point x="339.0" y="27.0" type="curve" smooth="yes"/>
      <point x="451.0" y="27.0"/>
      <point x="536.0" y="76.0"/>
      <point x="589.0" y="140.0" type="curve"/>
      <point x="486.0" y="230.0" type="line"/>
      <point x="447.0" y="177.0"/>
      <point x="391.0" y="160.0"/>
      <point x="341.0" y="160.0" type="curve" smooth="yes"/>
      <point x="242.0" y="160.0"/>
      <point x="157.0" y="221.0"/>
      <point x="157.0" y="349.0" type="curve" smooth="yes"/>
      <point x="157.0" y="477.0"/>
      <point x="242.0" y="540.0"/>
      <point x="338.0" y="540.0" type="curve" smooth="yes"/>
      <point x="401.0" y="540.0"/>
      <point x="446.0" y="520.0"/>
      <point x="488.0" y="466.0" type="curve"/>
      <point x="588.0" y="561.0" type="line"/>
      <point x="522.0" y="639.0"/>
      <point x="430.0" y="673.0"/>
      <point x="339.0" y="673.0" type="curve" smooth="yes"/>
      <point x="163.0" y="673.0"/>
      <point x="14.0" y="540.0"/>
      <point x="14.0" y="349.0" type="curve" smooth="yes"/>
      <point x="14.0" y="159.0"/>
      <point x="171.0" y="27.0"/>
    </contour>
    <contour>
      <point x="284.0" y="-69.0" type="line"/>
      <point x="374.0" y="-69.0" type="line"/>
      <point x="374.0" y="775.0" type="line"/>
      <point x="284.0" y="775.0" type="line"/>
    </contour>
  </outline>
</glyph>
<glyph name="eight.numr" format="2">
  <advance width="330.0"/>
  <outline>
    <contour>
      <point x="165.0" y="308.0" type="curve" smooth="yes"/>
      <point x="236.0" y="308.0"/>
      <point x="299.0" y="351.0"/>
      <point x="299.0" y="420.0" type="curve" smooth="yes"/>
      <point x="299.0" y="456.0"/>
      <point x="287.0" y="491.0"/>
      <point x="244.0" y="515.0" type="curve"/>
      <point x="244.0" y="517.0" type="line"/>
      <point x="274.0" y="532.0"/>
      <point x="288.0" y="563.0"/>
      <point x="288.0" y="596.0" type="curve" smooth="yes"/>
      <point x="288.0" y="661.0"/>
      <point x="241.0" y="707.0"/>
      <point x="165.0" y="707.0" type="curve" smooth="yes"/>
      <point x="72.0" y="707.0"/>
      <point x="40.0" y="643.0"/>
      <point x="40.0" y="596.0" type="curve" smooth="yes"/>
      <point x="40.0" y="564.0"/>
      <point x="56.0" y="532.0"/>
      <point x="84.0" y="517.0" type="curve"/>
      <point x="84.0" y="515.0" type="line"/>
      <point x="47.0" y="493.0"/>
      <point x="31.0" y="463.0"/>
      <point x="31.0" y="420.0" type="curve" smooth="yes"/>
      <point x="31.0" y="352.0"/>
      <point x="89.0" y="308.0"/>
    </contour>
    <contour>
      <point x="165.0" y="380.0" type="curve" smooth="yes"/>
      <point x="133.0" y="380.0"/>
      <point x="112.0" y="405.0"/>
      <point x="112.0" y="430.0" type="curve" smooth="yes"/>
      <point x="112.0" y="460.0"/>
      <point x="135.0" y="480.0"/>
      <point x="165.0" y="480.0" type="curve" smooth="yes"/>
      <point x="195.0" y="480.0"/>
      <point x="216.0" y="460.0"/>
      <point x="216.0" y="430.0" type="curve" smooth="yes"/>
      <point x="216.0" y="408.0"/>
      <point x="199.0" y="380.0"/>
    </contour>
    <contour>
      <point x="165.0" y="549.0" type="curve" smooth="yes"/>
      <point x="132.0" y="549.0"/>
      <point x="121.0" y="573.0"/>
      <point x="121.0" y="593.0" type="curve" smooth="yes"/>
      <point x="121.0" y="618.0"/>
      <point x="141.0" y="634.0"/>
      <point x="165.0" y="634.0" type="curve" smooth="yes"/>
      <point x="189.0" y="634.0"/>
      <point x="209.0" y="618.0"/>
      <point x="209.0" y="593.0" type="curve" smooth="yes"/>
      <point x="209.0" y="573.0"/>
      <point x="194.0" y="549.0"/>
    </contour>
  </outline>
</glyph>
<glyph name="f_f_i.ss11" format="2">
  <advance width="881.0"/>
  <anchor x="757.0" y="0.0" name="bottom_1"/>
  <anchor x="736.0" y="0.0" name="ogonek_1"/>
  <anchor x="757.0" y="505.0" name="top_1"/>
  <anchor x="362.0" y="0.0" name="caret_1"/>
  <anchor x="650.0" y="0.0" name="caret_2"/>
  <outline>
    <contour>
      <point x="113.0" y="0.0" type="line"/>
      <point x="248.0" y="0.0" type="line"/>
      <point x="248.0" y="507.0" type="line" smooth="yes"/>
      <point x="248.0" y="562.0"/>
      <point x="282.0" y="590.0"/>
      <point x="327.0" y="590.0" type="curve" smooth="yes"/>
      <point x="369.0" y="590.0"/>
      <point x="401.0" y="564.0"/>
      <point x="401.0" y="514.0" type="curve" smooth="yes"/>
      <point x="401.0" y="0.0" type="line"/>
      <point x="536.0" y="0.0" type="line"/>
      <point x="536.0" y="507.0" type="line" smooth="yes"/>
      <point x="536.0" y="562.0"/>
      <point x="570.0" y="590.0"/>
      <point x="615.0" y="590.0" type="curve" smooth="yes"/>
      <point x="657.0" y="590.0"/>
      <point x="690.0" y="563.0"/>
      <point x="690.0" y="512.0" type="curve"/>
      <point x="675.0" y="544.0" type="line"/>
      <point x="826.0" y="544.0" type="line"/>
      <point x="824.0" y="512.0" type="line"/>
      <point x="824.0" y="642.0"/>
      <point x="736.0" y="713.0"/>
      <point x="615.0" y="713.0" type="curve" smooth="yes"/>
      <point x="544.0" y="713.0"/>
      <point x="474.0" y="672.0"/>
      <point x="455.0" y="608.0" type="curve"/>
      <point x="536.0" y="645.0" type="line"/>
      <point x="404.0" y="645.0" type="line"/>
      <point x="485.0" y="607.0" type="line"/>
      <point x="466.0" y="672.0"/>
      <point x="397.0" y="713.0"/>
      <point x="327.0" y="713.0" type="curve" smooth="yes"/>
      <point x="203.0" y="713.0"/>
      <point x="113.0" y="642.0"/>
      <point x="113.0" y="514.0" type="curve" smooth="yes"/>
    </contour>
    <contour>
      <point x="20.0" y="385.0" type="line"/>
      <point x="635.0" y="385.0" type="line"/>
      <point x="635.0" y="505.0" type="line"/>
      <point x="20.0" y="505.0" type="line"/>
    </contour>
    <component base="idotless" xOffset="619.0"/>
  </outline>
</glyph>
<glyph name="f_f_l.ss11" format="2">
  <advance width="933.0"/>
  <anchor x="391.0" y="0.0" name="caret_1"/>
  <anchor x="675.0" y="0.0" name="caret_2"/>
  <outline>
    <contour>
      <point x="113.0" y="0.0" type="line"/>
      <point x="248.0" y="0.0" type="line"/>
      <point x="248.0" y="502.0" type="line" smooth="yes"/>
      <point x="248.0" y="556.0"/>
      <point x="282.0" y="590.0"/>
      <point x="337.0" y="590.0" type="curve" smooth="yes"/>
      <point x="389.0" y="590.0"/>
      <point x="421.0" y="559.0"/>
      <point x="421.0" y="510.0" type="curve" smooth="yes"/>
      <point x="421.0" y="0.0" type="line"/>
      <point x="556.0" y="0.0" type="line"/>
      <point x="556.0" y="502.0" type="line" smooth="yes"/>
      <point x="556.0" y="556.0"/>
      <point x="590.0" y="590.0"/>
      <point x="645.0" y="590.0" type="curve" smooth="yes"/>
      <point x="697.0" y="590.0"/>
      <point x="729.0" y="559.0"/>
      <point x="729.0" y="510.0" type="curve" smooth="yes"/>
      <point x="729.0" y="0.0" type="line"/>
      <point x="864.0" y="0.0" type="line"/>
      <point x="864.0" y="498.0" type="line" smooth="yes"/>
      <point x="864.0" y="630.0"/>
      <point x="776.0" y="713.0"/>
      <point x="645.0" y="713.0" type="curve" smooth="yes"/>
      <point x="580.0" y="713.0"/>
      <point x="497.0" y="671.0"/>
      <point x="475.0" y="598.0" type="curve"/>
      <point x="556.0" y="635.0" type="line"/>
      <point x="424.0" y="635.0" type="line"/>
      <point x="505.0" y="597.0" type="line"/>
      <point x="483.0" y="672.0"/>
      <point x="401.0" y="713.0"/>
      <point x="337.0" y="713.0" type="curve" smooth="yes"/>
      <point x="203.0" y="713.0"/>
      <point x="113.0" y="630.0"/>
      <point x="113.0" y="498.0" type="curve" smooth="yes"/>
    </contour>
    <contour>
      <point x="20.0" y="385.0" type="line"/>
      <point x="675.0" y="385.0" type="line"/>
      <point x="675.0" y="505.0" type="line"/>
      <point x="20.0" y="505.0" type="line"/>
    </contour>
  </outline>
</glyph>
<glyph name="germandbls.ss10" format="2">
  <advance width="693.0"/>
  <outline>
    <contour>
      <point x="20.0" y="385.0" type="line"/>
      <point x="172.0" y="385.0" type="line"/>
      <point x="172.0" y="505.0" type="line"/>
      <point x="20.0" y="505.0" type="line"/>
    </contour>
    <component base="germandbls" xOffset="51.0"/>
  </outline>
</glyph>
<glyph name="guarani.ss02" format="2">
  <advance width="670.0"/>
  <anchor x="378.0" y="653.0" name="_TopCurrency"/>
  <outline>
    <contour>
      <point x="378.0" y="22.0" type="curve" smooth="yes"/>
      <point x="492.0" y="22.0"/>
      <point x="586.0" y="67.0"/>
      <point x="636.0" y="124.0" type="curve"/>
      <point x="636.0" y="402.0" type="line"/>
      <point x="337.0" y="402.0" type="line"/>
      <point x="337.0" y="281.0" type="line"/>
      <point x="561.0" y="281.0" type="line"/>
      <point x="504.0" y="298.0" type="line"/>
      <point x="504.0" y="143.0" type="line"/>
      <point x="541.0" y="211.0" type="line"/>
      <point x="504.0" y="171.0"/>
      <point x="437.0" y="150.0"/>
      <point x="381.0" y="150.0" type="curve" smooth="yes"/>
      <point x="268.0" y="150.0"/>
      <point x="179.0" y="230.0"/>
      <point x="179.0" y="349.0" type="curve" smooth="yes"/>
      <point x="179.0" y="473.0"/>
      <point x="262.0" y="549.0"/>
      <point x="382.0" y="549.0" type="curve" smooth="yes"/>
      <point x="447.0" y="549.0"/>
      <point x="489.0" y="525.0"/>
      <point x="529.0" y="485.0" type="curve"/>
      <point x="624.0" y="573.0" type="line"/>
      <point x="561.0" y="645.0"/>
      <point x="474.0" y="677.0"/>
      <point x="378.0" y="677.0" type="curve" smooth="yes"/>
      <point x="197.0" y="677.0"/>
      <point x="42.0" y="532.0"/>
      <point x="42.0" y="349.0" type="curve" smooth="yes"/>
      <point x="42.0" y="156.0"/>
      <point x="187.0" y="22.0"/>
    </contour>
    <component base="verticalTopCurrencycomb" xOffset="378.0"/>
    <component base="verticalBottomCurrencycomb" xOffset="378.0"/>
  </outline>
</glyph>
<glyph name="hookabovecombviet.case" format="2">
  <advance width="300.0"/>
  <anchor x="0.0" y="700.0" name="_top"/>
  <anchor x="0.0" y="870.0" name="top"/>
  <outline>
    <contour>
      <point x="0.0" y="733.0" type="line"/>
      <point x="47.0" y="756.0"/>
      <point x="65.0" y="782.0"/>
      <point x="65.0" y="819.0" type="curve" smooth="yes"/>
      <point x="65.0" y="864.0"/>
      <point x="24.0" y="916.0"/>
      <point x="-58.0" y="916.0" type="curve" smooth="yes"/>
      <point x="-89.0" y="916.0"/>
      <point x="-124.0" y="903.0"/>
      <point x="-148.0" y="888.0" type="curve"/>
      <point x="-104.0" y="814.0" type="line"/>
      <point x="-89.0" y="823.0"/>
      <point x="-69.0" y="829.0"/>
      <point x="-51.0" y="829.0" type="curve" smooth="yes"/>
      <point x="-22.0" y="829.0"/>
      <point x="-9.0" y="815.0"/>
      <point x="-9.0" y="801.0" type="curve" smooth="yes"/>
      <point x="-9.0" y="791.0"/>
      <point x="-17.0" y="781.0"/>
      <point x="-39.0" y="773.0" type="curve"/>
    </contour>
  </outline>
</glyph>
<glyph name="macroncomb.case" format="2">
  <anchor x="0.0" y="700.0" name="_top"/>
  <anchor x="0.0" y="834.0" name="top"/>
  <outline>
    <contour>
      <point x="-140.0" y="740.0" type="line"/>
      <point x="140.0" y="740.0" type="line"/>
      <point x="140.0" y="830.0" type="line"/>
      <point x="-140.0" y="830.0" type="line"/>
    </contour>
  </outline>
</glyph>
<glyph name="rupeeIndian.tf" format="2">
  <advance width="596.0"/>
  <outline>
    <contour>
      <point x="299.0" y="20.0" type="line"/>
      <point x="464.0" y="20.0" type="line"/>
      <point x="223.0" y="307.0" type="line"/>
      <point x="247.0" y="248.0" type="line"/>
      <point x="378.0" y="258.0"/>
      <point x="464.0" y="339.0"/>
      <point x="464.0" y="460.0" type="curve" smooth="yes"/>
      <point x="464.0" y="587.0"/>
      <point x="388.0" y="680.0"/>
      <point x="243.0" y="680.0" type="curve" smooth="yes"/>
      <point x="30.0" y="680.0" type="line"/>
      <point x="30.0" y="545.0" type="line"/>
      <point x="202.0" y="545.0" type="line" smooth="yes"/>
      <point x="294.0" y="545.0"/>
      <point x="322.0" y="515.0"/>
      <point x="322.0" y="459.0" type="curve" smooth="yes"/>
      <point x="322.0" y="402.0"/>
      <point x="294.0" y="371.0"/>
      <point x="202.0" y="371.0" type="curve" smooth="yes"/>
      <point x="30.0" y="371.0" type="line"/>
      <point x="30.0" y="241.0" type="line"/>
      <point x="101.0" y="241.0" type="line"/>
    </contour>
    <contour>
      <point x="24.0" y="416.0" type="line"/>
      <point x="503.0" y="416.0" type="line"/>
      <point x="562.0" y="501.0" type="line"/>
      <point x="83.0" y="501.0" type="line"/>
    </contour>
    <contour>
      <point x="193.0" y="595.0" type="line"/>
      <point x="523.0" y="595.0" type="line"/>
      <point x="582.0" y="680.0" type="line"/>
      <point x="193.0" y="680.0" type="line"/>
    </contour>
  </outline>
</glyph>
<glyph name="t.ss10" format="2">
  <advance width="393.0"/>
  <anchor x="197.0" y="293.0" name="bar"/>
  <anchor x="196.0" y="0.0" name="bottom"/>
  <anchor x="198.0" y="276.0" name="center"/>
  <anchor x="196.0" y="610.0" name="top"/>
  <anchor x="315.0" y="740.0" name="topright"/>
  <outline>
    <contour>
      <point x="128.0" y="0.0" type="line"/>
      <point x="263.0" y="0.0" type="line"/>
      <point x="263.0" y="610.0" type="line"/>
      <point x="128.0" y="610.0" type="line"/>
    </contour>
    <contour>
      <point x="20.0" y="385.0" type="line"/>
      <point x="373.0" y="385.0" type="line"/>
      <point x="373.0" y="505.0" type="line"/>
      <point x="20.0" y="505.0" type="line"/>
    </contour>
  </outline>
</glyph>
<glyph name="zero.ss10.numr" format="2">
  <advance width="387.0"/>
  <outline>
    <contour>
      <point x="192.0" y="308.0" type="curve" smooth="yes"/>
      <point x="283.0" y="308.0"/>
      <point x="348.0" y="375.0"/>
      <point x="348.0" y="506.0" type="curve" smooth="yes"/>
      <point x="348.0" y="635.0"/>
      <point x="287.0" y="706.0"/>
      <point x="192.0" y="706.0" type="curve" smooth="yes"/>
      <point x="100.0" y="706.0"/>
      <point x="39.0" y="637.0"/>
      <point x="39.0" y="506.0" type="curve" smooth="yes"/>
      <point x="39.0" y="374.0"/>
      <point x="104.0" y="308.0"/>
    </contour>
    <contour>
      <point x="193.0" y="386.0" type="curve" smooth="yes"/>
      <point x="153.0" y="386.0"/>
      <point x="127.0" y="417.0"/>
      <point x="127.0" y="506.0" type="curve" smooth="yes"/>
      <point x="127.0" y="602.0"/>
      <point x="153.0" y="628.0"/>
      <point x="193.0" y="628.0" type="curve" smooth="yes"/>
      <point x="235.0" y="628.0"/>
      <point x="260.0" y="602.0"/>
      <point x="260.0" y="506.0" type="curve" smooth="yes"/>
      <point x="260.0" y="417.0"/>
      <point x="235.0" y="386.0"/>
    </contour>
  </outline>
</glyph>
<glyph name="zero.tf" format="2">
  <advance width="596.0"/>
  <outline>
    <contour>
      <point x="298.0" y="-13.0" type="curve" smooth="yes"/>
      <point x="459.0" y="-13.0"/>
      <point x="570.0" y="109.0"/>
      <point x="570.0" y="259.0" type="curve" smooth="yes"/>
      <point x="570.0" y="439.0" type="line" smooth="yes"/>
      <point x="570.0" y="589.0"/>
      <point x="459.0" y="711.0"/>
      <point x="298.0" y="711.0" type="curve" smooth="yes"/>
      <point x="137.0" y="711.0"/>
      <point x="26.0" y="589.0"/>
      <point x="26.0" y="439.0" type="curve" smooth="yes"/>
      <point x="26.0" y="259.0" type="line" smooth="yes"/>
      <point x="26.0" y="109.0"/>
      <point x="137.0" y="-13.0"/>
    </contour>
    <contour>
      <point x="298.0" y="117.0" type="curve" smooth="yes"/>
      <point x="212.0" y="117.0"/>
      <point x="171.0" y="184.0"/>
      <point x="171.0" y="275.0" type="curve" smooth="yes"/>
      <point x="171.0" y="422.0" type="line" smooth="yes"/>
      <point x="171.0" y="523.0"/>
      <point x="212.0" y="581.0"/>
      <point x="298.0" y="581.0" type="curve" smooth="yes"/>
      <point x="384.0" y="581.0"/>
      <point x="425.0" y="523.0"/>
      <point x="425.0" y="422.0" type="curve" smooth="yes"/>
      <point x="425.0" y="275.0" type="line" smooth="yes"/>
      <point x="425.0" y="184.0"/>
      <point x="384.0" y="117.0"/>
    </contour>
  </outline>
</glyph>
